<svg xmlns="http://www.w3.org/2000/svg" xmlns:xlink="http://www.w3.org/1999/xlink" version="1.1" width="1030.6242772678497" height="201.62427726784983" xml:space="preserve" style=""><rect id="backgroundrect" width="100%" height="100%" x="0" y="0" fill="none" stroke="none"/>
<desc>Created with Fabric.js 5.2.4</desc>
<defs>
</defs>



<g class="currentLayer" style=""><title>Layer 1</title><g id="d744eacd-6c14-4500-8336-ace851e7754b" class="">
<rect style="stroke: none; stroke-width: 1; stroke-dasharray: none; stroke-linecap: butt; stroke-dashoffset: 0; stroke-linejoin: miter; stroke-miterlimit: 4; fill: rgb(255,255,255); fill-rule: nonzero; opacity: 1; visibility: hidden;" vector-effect="non-scaling-stroke" x="-541.156069278717" y="-540" rx="0" ry="0" width="1080" height="1080" transform="matrix(0.4214300966487562,0,0,0.3693753900258942,450.0248084244598,501.9246366013161) " stroke-width="0" id="svg_1"/>
</g><g id="a6d06b0e-cdd3-42da-abf2-cb02090e0887">
</g><g id="svg_2" class="">
<g style="" vector-effect="non-scaling-stroke" stroke-width="0" id="svg_3">
		<g stroke-width="0" id="svg_4">
<path style="stroke: none; stroke-width: 1; stroke-dasharray: none; stroke-linecap: butt; stroke-dashoffset: 0; stroke-linejoin: miter; stroke-miterlimit: 4; fill: rgb(0,0,0); fill-rule: nonzero; opacity: 1;" vector-effect="non-scaling-stroke" d="M8.165140893479057,98.75294530196098 L8.165140893479057,189.77859337897206 L21.133027424831944,189.77859337897206 C33.58219849493088,189.77859337897206 34.10091395618497,188.0281001467218 34.10091395618497,154.76872873396778 C34.10091395618497,119.75886408896349 34.10091395618497,119.75886408896349 49.143662332554484,119.75886408896349 C70.41099624397333,119.75886408896349 80.78530546905577,101.08693627829462 80.78530546905577,63.74308065695669 C80.78530546905577,26.39922503561878 70.41099624397333,14.145772409867266 34.10091395618497,10.061288201283531 L8.165140893479057,7.143799480866534 L8.165140893479057,98.75294530196098 zM54.849532406349724,67.24406712145706 C54.849532406349724,92.33447011704347 53.29338602258746,96.41895432562735 44.47522318126742,96.41895432562735 C35.65706033994737,96.41895432562735 34.10091395618497,92.33447011704347 34.10091395618497,67.24406712145706 C34.10091395618497,42.15366412587066 35.65706033994737,38.06917991728693 44.47522318126742,38.06917991728693 C53.29338602258746,38.06917991728693 54.849532406349724,42.15366412587066 54.849532406349724,67.24406712145706 z" stroke-linecap="round" stroke-width="0" id="svg_5"/>
</g>
		<g stroke-width="0" id="svg_6">
<path style="stroke: none; stroke-width: 1; stroke-dasharray: none; stroke-linecap: butt; stroke-dashoffset: 0; stroke-linejoin: miter; stroke-miterlimit: 4; fill: rgb(0,0,0); fill-rule: nonzero; opacity: 1;" vector-effect="non-scaling-stroke" d="M98.60917940548566,9.484940627685159 C98.60917940548566,10.65193611585205 98.09046394423157,52.0802759457737 97.05303302172325,101.09408644877976 C96.01560209921507,189.7857435494572 96.01560209921507,189.7857435494572 107.9460577080598,189.7857435494572 C118.83908239439633,189.7857435494572 119.35779785565042,187.45175257312357 119.35779785565042,151.85839018403593 C119.35779785565042,124.4339962121159 121.4326597006669,113.93103681861464 126.10109885195396,113.93103681861464 C139.068985383307,113.93103681861464 145.29357091835647,128.5184804206998 145.29357091835647,158.8603631130368 C145.29357091835647,188.03525031720696 145.81228637961055,189.7857435494572 158.2614574497095,189.7857435494572 C170.1919130585542,189.7857435494572 171.22934398106239,188.03525031720696 171.22934398106239,161.7778518334538 C171.22934398106239,146.6069104872853 167.59833575228362,126.76798718844952 163.44861206225065,117.43202328311502 C157.74274198845526,105.76206840144702 157.22402652720118,98.17659772836276 160.85503475598006,94.09211351977888 C169.15448213604589,84.75614961444435 167.07962029102953,28.740366182437562 158.2614574497095,20.571397765269936 C150.9994409921517,13.56942483626905 98.60917940548566,4.233460930934532 98.60917940548566,9.484940627685159 zM142.69999361208588,64.33372857152521 C142.69999361208588,84.172651870361 141.1438472283235,87.67363833486151 131.28825346449526,89.42413156711162 C120.39522877815872,91.17462479936188 119.35779785565042,88.84063382302824 119.35779785565042,64.33372857152521 C119.35779785565042,39.82682332002234 120.39522877815872,37.49283234368871 131.28825346449526,39.24332557593882 C141.1438472283235,40.993818808189076 142.69999361208588,44.49480527268945 142.69999361208588,64.33372857152521 z" stroke-linecap="round" stroke-width="0" id="svg_7"/>
</g>
		<g stroke-width="0" id="svg_8">
<path style="stroke: none; stroke-width: 1; stroke-dasharray: none; stroke-linecap: butt; stroke-dashoffset: 0; stroke-linejoin: miter; stroke-miterlimit: 4; fill: rgb(0,0,0); fill-rule: nonzero; opacity: 1;" vector-effect="non-scaling-stroke" d="M359.02190001114815,20.586689815710695 C338.79199702223747,43.34310183496346 346.5727289410492,75.43547775955075 381.3266648450753,116.8638175894724 C398.44427506646116,137.28623863239153 398.96299052771525,163.54363711614482 382.3640957675835,163.54363711614482 C375.10207931002583,163.54363711614482 371.4710710812469,158.87565516347757 370.43364015873874,147.2057002818094 C369.39620923623045,136.1192431442248 365.7652010074517,131.45126119155753 358.5031845498939,131.45126119155753 C351.2411680923363,131.45126119155753 348.6475907860657,135.53574540014142 348.6475907860657,148.9561935140597 C348.6475907860657,171.1291077892291 364.72777008494336,189.80103559989797 383.92024215134586,189.80103559989797 C401.0378523727317,189.80103559989797 407.2624379077812,185.1330536472307 416.0806007491013,167.0446235806452 C425.9361945129296,146.0387047936427 418.15546259411775,119.7813063098894 394.8132668376824,92.94041008205289 C378.2143720775505,74.26848227138386 374.06464838751754,64.93251836604934 375.6207947712799,52.095567996214456 C377.6956566162964,31.673146953295316 392.2196895314117,28.755658232878318 394.29455137642816,48.011083787630724 C395.8506977601906,57.93054543704861 399.48170598896945,61.43153190154898 408.81858429154363,61.43153190154898 C424.3800481291672,61.43153190154898 425.4174790516754,45.67709281129709 410.374730675306,24.08767628021106 C397.406844143953,5.415748469542181 374.06464838751754,3.6652552372919205 359.02190001114815,20.586689815710695 z" stroke-linecap="round" stroke-width="0" id="svg_9"/>
</g>
		<g stroke-width="0" id="svg_10">
<path style="stroke: none; stroke-width: 1; stroke-dasharray: none; stroke-linecap: butt; stroke-dashoffset: 0; stroke-linejoin: miter; stroke-miterlimit: 4; fill: rgb(0,0,0); fill-rule: nonzero; opacity: 1;" vector-effect="non-scaling-stroke" d="M439.0061622364114,9.511914029448 C438.4874467751573,10.678909517614892 437.9687313139032,52.107249347536545 437.45001585264913,101.12105985054261 C436.4125849301408,189.81271695122004 436.4125849301408,189.81271695122004 448.34304053898563,189.81271695122004 C458.717349764068,189.81271695122004 459.7547806865763,187.47872597488643 459.7547806865763,154.80285230621575 C459.7547806865763,119.79298766121148 459.7547806865763,119.79298766121148 474.79752906294567,119.79298766121148 C498.1397248193811,119.79298766121148 506.43917219944706,106.37253954729323 506.43917219944706,67.86168843778857 C506.43917219944706,24.682855375616512 500.2145866643976,15.346891470282152 466.49808168287984,10.678909517614892 C451.45533330651034,8.928416285364632 439.0061622364114,8.344918541281263 439.0061622364114,9.511914029448 zM483.0969764430116,67.27819069370506 C483.0969764430116,90.03460271295782 481.54083005924923,93.53558917745835 471.68523629542096,95.28608240970861 C460.79221160908446,97.0365756419587 459.7547806865763,95.28608240970861 459.7547806865763,67.27819069370506 C459.7547806865763,39.27029897770166 460.79221160908446,37.51980574545155 471.68523629542096,39.27029897770166 C481.54083005924923,41.02079220995192 483.0969764430116,44.521778674452285 483.0969764430116,67.27819069370506 z" stroke-linecap="round" stroke-width="0" id="svg_11"/>
</g>
		<g stroke-width="0" id="svg_12">
<path style="stroke: none; stroke-width: 1; stroke-dasharray: none; stroke-linecap: butt; stroke-dashoffset: 0; stroke-linejoin: miter; stroke-miterlimit: 4; fill: rgb(0,0,0); fill-rule: nonzero; opacity: 1;" vector-effect="non-scaling-stroke" d="M524.1342488764309,11.86296679190578 C524.1342488764309,13.61346002415604 523.6155334151769,53.29130662182759 523.6155334151769,100.55462389258338 L523.6155334151769,186.91229001692722 L550.5887374003911,188.66278324917747 C584.3052423819089,190.9967742255111 591.5672588394665,188.07928550509394 587.9362506106877,172.90834415892542 C585.8613887656714,162.98888250950753 581.1929496143842,160.65489153317407 565.1127703155065,160.65489153317407 L544.8828673265958,160.65489153317407 L544.8828673265958,133.81399530533741 L544.8828673265958,106.97309907750075 L563.03790847049,110.47408554200128 C580.1555186918761,113.97507200650163 581.1929496143842,113.39157426241827 581.1929496143842,99.38762840441649 C581.1929496143842,86.55067803458161 579.1180877693677,84.80018480233134 563.03790847049,84.80018480233134 C545.40158278785,84.80018480233134 544.8828673265958,84.21668705824798 544.8828673265958,61.460275038995206 C544.8828673265958,38.12036527565907 544.8828673265958,38.12036527565907 565.1127703155065,38.12036527565907 C580.6742341531301,38.12036527565907 585.8613887656714,35.786374299325445 587.9362506106877,27.033908138074292 C589.4923969944501,20.61543295315693 588.9736815331959,14.196957768239411 587.4175351494335,12.446464535989303 C583.7865269206548,8.361980327405414 524.1342488764309,7.778482583322045 524.1342488764309,11.86296679190578 z" stroke-linecap="round" stroke-width="0" id="svg_13"/>
</g>
		<g stroke-width="0" id="svg_14">
<path style="stroke: none; stroke-width: 1; stroke-dasharray: none; stroke-linecap: butt; stroke-dashoffset: 0; stroke-linejoin: miter; stroke-miterlimit: 4; fill: rgb(0,0,0); fill-rule: nonzero; opacity: 1;" vector-effect="non-scaling-stroke" d="M614.4238115315633,20.63157425756344 C605.0869332289892,31.134533651064693 604.049502306481,39.88699981231584 604.049502306481,99.403769708823 C604.049502306481,158.9205396053303 605.0869332289892,167.67300576658133 614.4238115315633,178.17596516008257 C639.3221536717612,206.1838568760861 676.6696668820578,184.5944403450001 676.6696668820578,142.58260277099492 C676.6696668820578,121.57668398399241 675.6322359595496,119.24269300765877 665.257926734467,120.99318623990904 C655.9210484318928,122.16018172807577 653.8461865868765,126.24466593665966 654.8836175093846,137.91462081832765 C656.4397638931471,153.6690599085797 644.5093082843024,170.00699674291494 635.1724299817282,163.58852155799758 C632.0601372142035,161.25453058166394 629.9852753691868,134.99713209791065 629.9852753691868,99.403769708823 C629.9852753691868,63.81040731973535 632.0601372142035,37.55300883598221 635.1724299817282,35.21901785964858 C643.9905928230481,29.384040418814433 656.4397638931471,44.55498176498295 654.8836175093846,57.97542987890135 C653.8461865868765,66.72789604015234 656.4397638931471,70.81238024873623 665.257926734467,71.97937573690298 C674.594805037041,73.72986896915323 676.6696668820578,71.3958779928196 676.6696668820578,58.558927622984726 C676.6696668820578,42.22099078864932 668.3702195019918,20.04807651348007 659.0333411994176,13.62960132856255 C648.1403165130811,5.460632911394926 624.7981207566456,8.961619375895292 614.4238115315633,20.63157425756344 z" stroke-linecap="round" stroke-width="0" id="svg_15"/>
</g>
		<g stroke-width="0" id="svg_16">
<path style="stroke: none; stroke-width: 1; stroke-dasharray: none; stroke-linecap: butt; stroke-dashoffset: 0; stroke-linejoin: miter; stroke-miterlimit: 4; fill: rgb(0,0,0); fill-rule: nonzero; opacity: 1;" vector-effect="non-scaling-stroke" d="M685.462686908521,18.275141060303593 C681.8316786797424,29.945095941971736 688.0562642147917,38.11406435913936 701.0241507461445,38.11406435913936 C712.4358908937353,38.11406435913936 712.4358908937353,39.2810598473061 710.8797445099729,113.96877108998193 L709.3235981262105,189.8234778208245 L722.2914846575636,189.8234778208245 L735.7780866501707,189.8234778208245 L735.7780866501707,113.96877108998193 L735.7780866501707,38.11406435913936 L748.7459731815237,38.11406435913936 C759.120282406606,38.11406435913936 761.7138597128766,35.196575638722365 761.7138597128766,24.11011850113759 C761.7138597128766,11.273168131302704 760.1577133291145,10.689670387219335 724.8850619638342,10.689670387219335 C699.4680043623824,10.689670387219335 687.5375487535374,13.023661363552964 685.462686908521,18.275141060303593 z" stroke-linecap="round" stroke-width="0" id="svg_17"/>
</g>
		<g stroke-width="0" id="svg_18">
<path style="stroke: none; stroke-width: 1; stroke-dasharray: none; stroke-linecap: butt; stroke-dashoffset: 0; stroke-linejoin: miter; stroke-miterlimit: 4; fill: rgb(0,0,0); fill-rule: nonzero; opacity: 1;" vector-effect="non-scaling-stroke" d="M774.148272408505,99.35888526697026 L774.148272408505,189.80103559989797 L805.2712000837522,189.80103559989797 C834.8379813752371,189.80103559989797 836.3941277589995,189.2175378558146 836.3941277589995,175.2135919978128 C836.3941277589995,162.37664162797793 834.3192659139828,160.62614839572782 818.2390866151052,160.62614839572782 L800.0840454712111,160.62614839572782 L800.0840454712111,84.77144166488512 L800.0840454712111,8.916734934042548 L787.1161589398579,8.916734934042548 L774.148272408505,8.916734934042548 L774.148272408505,99.35888526697026 z" stroke-linecap="round" stroke-width="0" id="svg_19"/>
</g>
		<g stroke-width="0" id="svg_20">
<path style="stroke: none; stroke-width: 1; stroke-dasharray: none; stroke-linecap: butt; stroke-dashoffset: 0; stroke-linejoin: miter; stroke-miterlimit: 4; fill: rgb(0,0,0); fill-rule: nonzero; opacity: 1;" vector-effect="non-scaling-stroke" d="M869.6413846228676,13.030422520931491 C869.6413846228676,15.94791124134849 864.9729454715804,49.207282654102514 859.267075397785,87.71813376360733 C845.7804734051779,178.7437818406184 845.7804734051779,189.83023897820303 859.267075397785,189.83023897820303 C867.566522777851,189.83023897820303 869.6413846228676,185.74575476961914 869.6413846228676,172.32530665570087 C869.6413846228676,156.570867565449 871.1975310066297,154.82037433319874 885.202848460491,154.82037433319874 C898.6894504530982,154.82037433319874 901.2830277593688,157.73786305361574 904.3953205268936,172.32530665570087 C906.4701823719099,185.74575476961914 910.1011906006889,189.83023897820303 919.438068903263,189.83023897820303 C929.8123781283454,189.83023897820303 931.3685245121078,187.4962480018694 929.2936626670911,176.40979086428476 C926.7000853608206,163.57284049444988 905.951466910656,17.69840447359875 905.951466910656,11.8634270327646 C905.951466910656,7.195445080097496 869.6413846228676,8.362440568264233 869.6413846228676,13.030422520931491 zM895.0584422243194,100.55508413344221 C899.2081659143524,130.3134690816957 898.6894504530982,131.4804645698626 886.7589948442535,131.4804645698626 C874.8285392354087,131.4804645698626 874.3098237741546,130.3134690816957 877.4221165416793,103.4725728538592 C878.9782629254418,88.30163150769069 882.0905556929663,67.87921046477155 884.1654175379829,58.54324655943703 C887.2777103055076,41.62181198101826 887.2777103055076,41.62181198101826 889.352572150524,55.62575783902003 C890.3900030730322,63.79472625618766 892.9835803793028,84.2171472991068 895.0584422243194,100.55508413344221 z" stroke-linecap="round" stroke-width="0" id="svg_21"/>
</g>
		<g stroke-width="0" id="svg_22">
<path style="stroke: none; stroke-width: 1; stroke-dasharray: none; stroke-linecap: butt; stroke-dashoffset: 0; stroke-linejoin: miter; stroke-miterlimit: 4; fill: rgb(0,0,0); fill-rule: nonzero; opacity: 1;" vector-effect="non-scaling-stroke" d="M944.5251234066559,99.38132748789678 L944.5251234066559,190.9904733089914 L972.5357583143783,188.65648233265776 C988.0972221520021,186.9059891004075 1004.6961169121337,182.8215048918236 1008.8458406021667,178.73702068323988 C1020.2575807497575,168.2340612897386 1020.2575807497575,112.21827785773166 1009.3645560634209,102.29881620831378 C1002.1025396058632,95.29684327931305 1002.1025396058632,93.54635004706279 1009.3645560634209,84.79388388581164 C1018.701434365995,73.12392900414365 1019.7388652885032,38.11406435913936 1010.401986985929,24.11011850113759 C1006.2522632958961,17.691643316220222 993.8030922257972,13.023661363552964 974.0919046981408,10.689670387219335 L944.5251234066559,7.188683922718969 L944.5251234066559,99.38132748789678 zM990.1720839970185,59.703480890225244 C989.1346530745103,76.62491546864402 986.0223603069854,82.45989290947801 978.2416283881737,83.6268883976449 C968.9047500855996,84.79388388581164 967.8673191630915,81.87639516539464 967.8673191630915,61.4539741224755 C967.8673191630915,41.03155307955636 968.9047500855996,38.11406435913936 979.7977747719361,38.11406435913936 C990.6907994582726,38.11406435913936 991.7282303807808,40.44805533547299 990.1720839970185,59.703480890225244 zM993.8030922257972,134.39119213290107 C993.8030922257972,154.81361317582022 992.2469458420351,157.73110189623722 980.8352056944443,159.48159512848747 C968.9047500855996,161.23208836073772 967.8673191630915,159.48159512848747 967.8673191630915,134.39119213290107 C967.3486037018372,109.30078913731467 968.3860346243454,107.55029590506442 980.8352056944443,109.30078913731467 C992.2469458420351,111.05128236956493 993.8030922257972,113.96877108998193 993.8030922257972,134.39119213290107 z" stroke-linecap="round" stroke-width="0" id="svg_23"/>
</g>
		<g stroke-width="0" id="svg_24">
<path style="stroke: none; stroke-width: 1; stroke-dasharray: none; stroke-linecap: butt; stroke-dashoffset: 0; stroke-linejoin: miter; stroke-miterlimit: 4; fill: rgb(0,0,0); fill-rule: nonzero; opacity: 1;" vector-effect="non-scaling-stroke" d="M182.05452398159082,23.7286007453908 C179.97966213657432,25.47909397764106 178.42351575281208,44.151021788310096 178.42351575281208,64.57344283122923 L178.42351575281208,101.33380070848362 L214.73359804060044,101.33380070848362 L251.04368032838877,101.33380070848362 L251.04368032838877,60.48895862264535 L251.04368032838877,19.644116536807065 L218.36460626937932,19.644116536807065 C200.209565125485,19.644116536807065 183.61067036535323,21.394609769057325 182.05452398159082,23.7286007453908 zM240.66937110330647,61.65595411081223 L240.66937110330647,92.58133454723263 L214.73359804060044,92.58133454723263 L188.79782497789438,92.58133454723263 L188.79782497789438,61.65595411081223 L188.79782497789438,31.31407141847506 L214.73359804060044,31.31407141847506 L240.66937110330647,31.31407141847506 L240.66937110330647,61.65595411081223 z" stroke-linecap="round" stroke-width="0" id="svg_25"/>
</g>
		<g stroke-width="0" id="svg_26">
<path style="stroke: none; stroke-width: 1; stroke-dasharray: none; stroke-linecap: butt; stroke-dashoffset: 0; stroke-linejoin: miter; stroke-miterlimit: 4; fill: rgb(0,0,0); fill-rule: nonzero; opacity: 1;" vector-effect="non-scaling-stroke" d="M263.49285139848774,36.52066667337325 C263.49285139848774,40.021653137873614 278.016884313603,42.355644114207244 297.2093563800055,42.355644114207244 C316.4018284464079,42.355644114207244 330.9258613615233,40.021653137873614 330.9258613615233,36.52066667337325 C330.9258613615233,33.01968020887273 316.4018284464079,30.685689232539097 297.2093563800055,30.685689232539097 C278.016884313603,30.685689232539097 263.49285139848774,33.01968020887273 263.49285139848774,36.52066667337325 z" stroke-linecap="round" stroke-width="0" id="svg_27"/>
</g>
		<g stroke-width="0" id="svg_28">
<path style="stroke: none; stroke-width: 1; stroke-dasharray: none; stroke-linecap: butt; stroke-dashoffset: 0; stroke-linejoin: miter; stroke-miterlimit: 4; fill: rgb(0,0,0); fill-rule: nonzero; opacity: 1;" vector-effect="non-scaling-stroke" d="M263.49285139848774,60.48895862264535 C263.49285139848774,63.98994508714571 278.016884313603,66.32393606347934 297.2093563800055,66.32393606347934 C316.4018284464079,66.32393606347934 330.9258613615233,63.98994508714571 330.9258613615233,60.48895862264535 C330.9258613615233,56.98797215814498 316.4018284464079,54.653981181811346 297.2093563800055,54.653981181811346 C278.016884313603,54.653981181811346 263.49285139848774,56.98797215814498 263.49285139848774,60.48895862264535 z" stroke-linecap="round" stroke-width="0" id="svg_29"/>
</g>
		<g stroke-width="0" id="svg_30">
<path style="stroke: none; stroke-width: 1; stroke-dasharray: none; stroke-linecap: butt; stroke-dashoffset: 0; stroke-linejoin: miter; stroke-miterlimit: 4; fill: rgb(0,0,0); fill-rule: nonzero; opacity: 1;" vector-effect="non-scaling-stroke" d="M263.49285139848774,90.38199689645647 C263.49285139848774,93.88298336095683 278.016884313603,96.21697433729047 297.2093563800055,96.21697433729047 C316.4018284464079,96.21697433729047 330.9258613615233,93.88298336095683 330.9258613615233,90.38199689645647 C330.9258613615233,86.88101043195594 316.4018284464079,84.54701945562232 297.2093563800055,84.54701945562232 C278.016884313603,84.54701945562232 263.49285139848774,86.88101043195594 263.49285139848774,90.38199689645647 z" stroke-linecap="round" stroke-width="0" id="svg_31"/>
</g>
		<g stroke-width="0" id="svg_32">
<path style="stroke: none; stroke-width: 1; stroke-dasharray: none; stroke-linecap: butt; stroke-dashoffset: 0; stroke-linejoin: miter; stroke-miterlimit: 4; fill: rgb(0,0,0); fill-rule: nonzero; opacity: 1;" vector-effect="non-scaling-stroke" d="M263.49285139848774,156.22747309417596 L263.49285139848774,197.07231518001424 L297.2093563800055,197.07231518001424 L330.9258613615233,197.07231518001424 L330.9258613615233,156.22747309417596 L330.9258613615233,115.38263100833768 L297.2093563800055,115.38263100833768 L263.49285139848774,115.38263100833768 L263.49285139848774,156.22747309417596 zM325.7387067489821,156.22747309417596 L325.7387067489821,185.40236029834625 L297.2093563800055,185.40236029834625 L268.68000601102887,185.40236029834625 L268.68000601102887,156.22747309417596 L268.68000601102887,127.05258589000584 L297.2093563800055,127.05258589000584 L325.7387067489821,127.05258589000584 L325.7387067489821,156.22747309417596 z" stroke-linecap="round" stroke-width="0" id="svg_33"/>
</g>
		<g stroke-width="0" id="svg_34">
<path style="stroke: none; stroke-width: 1; stroke-dasharray: none; stroke-linecap: butt; stroke-dashoffset: 0; stroke-linejoin: miter; stroke-miterlimit: 4; fill: rgb(0,0,0); fill-rule: nonzero; opacity: 1;" vector-effect="non-scaling-stroke" d="M181.07134347982574,126.28955037851225 C178.99648163480924,129.79053684301263 191.44565270490818,132.12452781934624 214.26913300008943,132.12452781934624 C235.53646691150826,132.12452781934624 251.09793074913188,129.79053684301263 251.09793074913188,126.28955037851225 C251.09793074913188,122.78856391401173 236.57389783401658,120.45457293767811 217.90014122886816,120.45457293767811 C199.22638462371992,120.45457293767811 182.62748986358812,122.78856391401173 181.07134347982574,126.28955037851225 z" stroke-linecap="round" stroke-width="0" id="svg_35"/>
</g>
		<g stroke-width="0" id="svg_36">
<path style="stroke: none; stroke-width: 1; stroke-dasharray: none; stroke-linecap: butt; stroke-dashoffset: 0; stroke-linejoin: miter; stroke-miterlimit: 4; fill: rgb(0,0,0); fill-rule: nonzero; opacity: 1;" vector-effect="non-scaling-stroke" d="M181.07134347982574,156.22747309417596 C182.62748986358812,159.14496181459296 199.22638462371992,162.06245053501013 217.90014122886816,162.06245053501013 C236.57389783401658,162.06245053501013 251.09793074913188,159.7284595586765 251.09793074913188,156.22747309417596 C251.09793074913188,152.7264866296756 235.53646691150826,150.39249565334197 214.26913300008943,150.39249565334197 C191.44565270490818,150.39249565334197 178.99648163480924,152.7264866296756 181.07134347982574,156.22747309417596 z" stroke-linecap="round" stroke-width="0" id="svg_37"/>
</g>
		<g stroke-width="0" id="svg_38">
<path style="stroke: none; stroke-width: 1; stroke-dasharray: none; stroke-linecap: butt; stroke-dashoffset: 0; stroke-linejoin: miter; stroke-miterlimit: 4; fill: rgb(0,0,0); fill-rule: nonzero; opacity: 1;" vector-effect="non-scaling-stroke" d="M181.07134347982574,180.15088060159562 C178.99648163480924,183.65186706609614 191.44565270490818,185.98585804242978 214.26913300008943,185.98585804242978 C235.53646691150826,185.98585804242978 251.09793074913188,183.65186706609614 251.09793074913188,180.15088060159562 C251.09793074913188,176.64989413709526 236.57389783401658,174.31590316076162 217.90014122886816,174.31590316076162 C199.22638462371992,174.31590316076162 182.62748986358812,176.64989413709526 181.07134347982574,180.15088060159562 z" stroke-linecap="round" stroke-width="0" id="svg_39"/>
</g>
</g>
</g></g></svg>